<svg xmlns="http://www.w3.org/2000/svg" width="71" height="59" viewBox="0 0 71 59">
  <g fill="#000000">
    <path d="M2.35294118,56.4847059 L68.2352941,56.4847059 L68.2352941,51.7788235 L2.35294118,51.7788235 L2.35294118,56.4847059 Z M69.4117647,58.8376471 L1.17647059,58.8376471 C0.525882353,58.8376471 0,58.3105882 0,57.6611765 L0,50.6023529 C0,49.9529412 0.525882353,49.4258824 1.17647059,49.4258824 L69.4117647,49.4258824 C70.0623529,49.4258824 70.5882353,49.9529412 70.5882353,50.6023529 L70.5882353,57.6611765 C70.5882353,58.3105882 70.0623529,58.8376471 69.4117647,58.8376471 L69.4117647,58.8376471 Z"/>
    <path d="M6.78423529,49.4258824 L38.8230588,49.4258824 C41.4183529,49.4258824 43.5289412,47.3152941 43.5289412,44.72 C43.5289412,42.1247059 41.4183529,40.0141176 38.8230588,40.0141176 L6.78423529,40.0141176 L7.07129412,40.4929412 C8.636,43.1011765 8.636,46.3388235 7.07129412,48.9470588 L6.78423529,49.4258824 Z M38.8230588,51.7788235 L4.70541176,51.7788235 C4.28188235,51.7788235 3.89129412,51.5505882 3.68188235,51.1823529 C3.47364706,50.8129412 3.47835294,50.36 3.69717647,49.9964706 L5.05364706,47.7352941 C6.17011765,45.8752941 6.17011765,43.5647059 5.05364706,41.7047059 L3.69717647,39.4435294 C3.47835294,39.08 3.47364706,38.6270588 3.68188235,38.2576471 C3.89129412,37.8894118 4.28188235,37.6611765 4.70541176,37.6611765 L38.8230588,37.6611765 C42.716,37.6611765 45.8818824,40.8270588 45.8818824,44.72 C45.8818824,48.6129412 42.716,51.7788235 38.8230588,51.7788235 L38.8230588,51.7788235 Z"/>
    <path d="M38.8235294 45.8964706L12.9411765 45.8964706C12.2905882 45.8964706 11.7647059 45.3694118 11.7647059 44.72 11.7647059 44.0705882 12.2905882 43.5435294 12.9411765 43.5435294L38.8235294 43.5435294C39.4741176 43.5435294 40 44.0705882 40 44.72 40 45.3694118 39.4741176 45.8964706 38.8235294 45.8964706M3.25482353 37.6611765L35.2936471 37.6611765C37.8889412 37.6611765 39.9995294 35.5505882 39.9995294 32.9552941 39.9995294 30.36 37.8889412 28.2494118 35.2936471 28.2494118L3.25482353 28.2494118 3.54188235 28.7282353C5.10658824 31.3364706 5.10658824 34.5741176 3.54188235 37.1823529L3.25482353 37.6611765zM35.2936471 40.0141176L1.176 40.0141176C.752470588 40.0141176.361882353 39.7858824.152470588 39.4176471-.0557647059 39.0482353-.0510588235 38.5952941.167764706 38.2317647L1.52423529 35.9705882C2.64070588 34.1105882 2.64070588 31.8 1.52423529 29.94L.167764706 27.6788235C-.0510588235 27.3152941-.0557647059 26.8623529.152470588 26.4929412.361882353 26.1247059.752470588 25.8964706 1.176 25.8964706L35.2936471 25.8964706C39.1865882 25.8964706 42.3524706 29.0623529 42.3524706 32.9552941 42.3524706 36.8482353 39.1865882 40.0141176 35.2936471 40.0141176L35.2936471 40.0141176z"/>
    <path d="M35.2941176 34.1317647L9.41176471 34.1317647C8.76117647 34.1317647 8.23529412 33.6047059 8.23529412 32.9552941 8.23529412 32.3058824 8.76117647 31.7788235 9.41176471 31.7788235L35.2941176 31.7788235C35.9447059 31.7788235 36.4705882 32.3058824 36.4705882 32.9552941 36.4705882 33.6047059 35.9447059 34.1317647 35.2941176 34.1317647M6.78423529 25.8964706L38.8230588 25.8964706C41.4183529 25.8964706 43.5289412 23.7858824 43.5289412 21.1905882 43.5289412 18.5952941 41.4183529 16.4847059 38.8230588 16.4847059L6.78423529 16.4847059 7.07129412 16.9635294C8.636 19.5717647 8.636 22.8094118 7.07129412 25.4176471L6.78423529 25.8964706zM38.8230588 28.2494118L4.70541176 28.2494118C4.28188235 28.2494118 3.89129412 28.0211765 3.68188235 27.6529412 3.47364706 27.2835294 3.47835294 26.8305882 3.69717647 26.4670588L5.05364706 24.2058824C6.17011765 22.3458824 6.17011765 20.0352941 5.05364706 18.1752941L3.69717647 15.9141176C3.47835294 15.5505882 3.47364706 15.0976471 3.68188235 14.7282353 3.89129412 14.36 4.28188235 14.1317647 4.70541176 14.1317647L38.8230588 14.1317647C42.716 14.1317647 45.8818824 17.2976471 45.8818824 21.1905882 45.8818824 25.0835294 42.716 28.2494118 38.8230588 28.2494118L38.8230588 28.2494118z"/>
    <path d="M42.0323529 5.97858824L53.6029412 49.1621176 62.6935294 46.7256471 51.1241176 3.54329412 42.0323529 5.97858824zM52.7711765 51.7785882C52.5664706 51.7785882 52.3629412 51.7256471 52.1829412 51.6209412 51.9123529 51.4656471 51.7147059 51.208 51.6347059 50.9068235L39.4558824 5.45152941C39.3747059 5.14917647 39.4158824 4.828 39.5723529 4.55858824 39.7288235 4.288 39.9864706 4.09152941 40.2876471 4.01035294L51.6511765.965647059C52.2794118.796235294 52.9252941 1.17035294 53.0911765 1.79741176L65.2711765 47.2527059C65.4394118 47.8797647 65.0664706 48.5256471 64.4394118 48.6938824L53.0758824 51.7385882C52.9758824 51.7656471 52.8735294 51.7785882 52.7711765 51.7785882L52.7711765 51.7785882zM38.8235294 22.3670588L12.9411765 22.3670588C12.2905882 22.3670588 11.7647059 21.84 11.7647059 21.1905882 11.7647059 20.5411765 12.2905882 20.0141176 12.9411765 20.0141176L38.8235294 20.0141176C39.4741176 20.0141176 40 20.5411765 40 21.1905882 40 21.84 39.4741176 22.3670588 38.8235294 22.3670588"/>
    <path d="M43.8591765 12.7972941L44.4685882 15.0702353 53.5591765 12.6337647 52.9509412 10.3608235 43.8591765 12.7972941zM43.6368235 17.6878824C43.4321176 17.6878824 43.2285882 17.6337647 43.0485882 17.5302353 42.778 17.3737647 42.5803529 17.1172941 42.5003529 16.8161176L41.2827059 12.2702353C41.1144706 11.642 41.4862353 10.9972941 42.1144706 10.8290588L53.478 7.78435294C53.7768235 7.702 54.0991765 7.74552941 54.3709412 7.90082353 54.6403529 8.05729412 54.838 8.31376471 54.918 8.61611765L56.1368235 13.162C56.3038824 13.7890588 55.9321176 14.4337647 55.3050588 14.602L43.9403529 17.6478824C43.8403529 17.6749412 43.738 17.6878824 43.6368235 17.6878824L43.6368235 17.6878824zM51.1672941 40.0704706L51.7767059 42.3434118 60.8672941 39.9069412 60.2590588 37.634 51.1672941 40.0704706zM50.9449412 44.9610588C50.7402353 44.9610588 50.5367059 44.9069412 50.3567059 44.8034118 50.0861176 44.6469412 49.8884706 44.3904706 49.8084706 44.0892941L48.5908235 39.5434118C48.4225882 38.9151765 48.7943529 38.2704706 49.4225882 38.1022353L60.7861176 35.0575294C61.0861176 34.9751765 61.4072941 35.0187059 61.6790588 35.174 61.9484706 35.3304706 62.1461176 35.5869412 62.2261176 35.8892941L63.4449412 40.4351765C63.612 41.0622353 63.2402353 41.7069412 62.6131765 41.8751765L51.2484706 44.9210588C51.1484706 44.9481176 51.0461176 44.9610588 50.9449412 44.9610588L50.9449412 44.9610588zM54.1888235 34.3477647C53.67 34.3477647 53.1935294 34.0007059 53.0535294 33.4748235L49.4005882 19.8383529C49.2323529 19.2101176 49.6052941 18.5654118 50.2323529 18.3971765 50.8594118 18.2277647 51.5052941 18.6018824 51.6723529 19.2289412L55.3264706 32.8665882C55.4935294 33.4936471 55.1217647 34.1395294 54.4947059 34.3065882 54.3923529 34.3348235 54.29 34.3477647 54.1888235 34.3477647"/>
  </g>
</svg>
