<svg xmlns="http://www.w3.org/2000/svg" width="95" height="40" viewBox="0 0 95 40">
  <g fill="#000000">
    <path d="M45.5218673,7.85601966 C28.9488943,7.85601966 15.819656,11.7302211 14.4206388,16.8958231 C13.0216216,16.8958231 11.8378378,18.0796069 11.8378378,19.4786241 C11.8378378,20.8776413 13.0216216,22.0614251 14.4206388,22.0614251 C15.1739558,22.0614251 15.819656,21.7385749 16.2501229,21.3081081 C20.6624079,25.0746929 31.9621622,27.6574939 45.4142506,27.6574939 C62.955774,27.6574939 76.6230958,23.2452088 76.6230958,17.64914 C76.7307125,12.160688 62.955774,7.85601966 45.5218673,7.85601966 Z M45.5218673,26.6889435 C31.3164619,26.6889435 20.7700246,23.7832924 16.8958231,20.5547912 C17.0034398,20.231941 17.1110565,19.9090909 17.1110565,19.5862408 C17.1110565,18.5100737 16.4653563,17.5415233 15.4968059,17.1110565 C16.6805897,13.0216216 28.5184275,8.93218673 45.5218673,8.93218673 C63.4938575,8.93218673 75.6545455,13.5597052 75.6545455,17.8643735 C75.6545455,22.1690418 63.4938575,26.6889435 45.5218673,26.6889435 Z"/>
    <path d="M94.4874693,18.9405405 C94.4874693,10.1159705 73.7174447,3.22850123 47.2437346,3.22850123 C20.7700246,3.22850123 0,10.1159705 0,18.9405405 C0,27.7651106 20.7700246,34.6525799 47.2437346,34.6525799 C57.5749386,34.6525799 67.0452088,33.5764128 74.7936118,31.7469287 C75.7621622,32.9307125 77.1611794,33.6840295 78.77543,33.6840295 C81.4658477,33.6840295 83.7257985,31.5316953 83.9410319,28.8412776 C90.5056511,26.2584767 94.4874693,22.814742 94.4874693,18.9405405 Z M83.8334152,27.7651106 C83.4029484,25.397543 81.358231,23.4604423 78.77543,23.4604423 C75.9773956,23.4604423 73.609828,25.7203931 73.609828,28.6260442 C73.609828,29.3793612 73.8250614,30.1326781 74.0402948,30.7783784 C66.3995086,32.6078624 57.1444717,33.5764128 47.1361179,33.5764128 C22.1690418,33.6840295 1.07616708,26.9041769 1.07616708,18.9405405 C1.07616708,10.9769042 22.1690418,4.3046683 47.2437346,4.3046683 C72.2108108,4.3046683 93.4113022,10.9769042 93.4113022,18.9405405 C93.4113022,22.2766585 89.7523342,25.2899263 83.8334152,27.7651106 Z"/>
    <ellipse cx="2.368" cy="8.717" rx=".43" ry=".43"/>
    <circle cx="17.111" cy="11.192" r=".43"/>
    <path d="M58.6511057,18.8329238 L58.6511057,18.6176904 C58.6511057,16.4653563 53.8083538,15.1739558 48.1046683,14.7434889 C47.3513514,13.5597052 45.9523342,12.6987715 44.3380835,12.5911548 C42.6162162,12.4835381 41.1095823,13.3444717 40.2486486,14.7434889 C34.5449631,15.1739558 29.7022113,16.4653563 29.7022113,18.6176904 C29.7022113,21.3081081 37.0201474,22.7071253 44.2304668,22.7071253 C48.8579853,22.7071253 53.4855037,22.1690418 56.2835381,20.985258 C56.4987715,21.6309582 57.1444717,22.0614251 57.8977887,22.0614251 C58.8663391,22.0614251 59.619656,21.3081081 59.619656,20.3395577 C59.5120393,19.6938575 59.0815725,19.0481572 58.6511057,18.8329238 Z M57.5749386,18.6176904 L57.5749386,18.6176904 C56.9292383,18.7253071 56.2835381,19.155774 56.1759214,19.8014742 C54.3464373,20.5547912 50.795086,21.3081081 46.0599509,21.5233415 C47.5665848,20.7700246 48.7503686,19.2633907 48.8579853,17.4339066 C48.8579853,16.8958231 48.7503686,16.3577396 48.6427518,15.819656 C54.2388206,16.2501229 57.5749386,17.5415233 57.5749386,18.6176904 Z M30.6707617,18.6176904 C30.6707617,17.64914 34.1144963,16.3577396 39.6029484,15.819656 C39.4953317,16.2501229 39.387715,16.572973 39.387715,17.0034398 C39.2800983,18.9405405 40.4638821,20.6624079 42.0781327,21.5233415 C35.0830467,21.2004914 30.6707617,19.6938575 30.6707617,18.6176904 Z"/>
    <ellipse cx="12.161" cy="26.366" rx=".323" ry=".323"/>
    <circle cx="23.03" cy="28.626" r=".43"/>
    <ellipse cx="23.46" cy="21.523" rx=".43" ry=".43"/>
    <circle cx="26.797" cy="37.235" r=".753"/>
    <circle cx="38.204" cy="37.128" r="1.076"/>
    <ellipse cx="45.629" cy="31.101" rx=".215" ry=".215"/>
    <ellipse cx="43.908" cy="6.134" rx=".323" ry=".323"/>
    <ellipse cx="35.944" cy="1.184" rx=".646" ry=".646"/>
    <ellipse cx="49.396" cy="1.507" rx=".323" ry=".323"/>
    <ellipse cx="56.391" cy="2.152" rx=".323" ry=".323"/>
    <ellipse cx="64.678" cy="2.583" rx=".43" ry=".43"/>
    <ellipse cx="63.924" cy="7.964" rx=".323" ry=".323"/>
    <ellipse cx="65.431" cy="13.022" rx=".43" ry=".43"/>
    <ellipse cx="69.843" cy="10.224" rx=".323" ry=".323"/>
    <ellipse cx="16.788" cy="1.184" rx=".646" ry=".646"/>
    <ellipse cx="24.429" cy="8.609" rx=".646" ry=".646"/>
    <ellipse cx="75.762" cy="2.69" rx="1.076" ry="1.076"/>
    <ellipse cx="78.022" cy="10.546" rx=".646" ry=".646"/>
    <ellipse cx="84.156" cy="13.883" rx=".538" ry=".538"/>
    <circle cx="61.557" cy="29.379" r=".323"/>
    <circle cx="30.348" cy="14.205" r=".215"/>
    <ellipse cx="3.444" cy="17.972" rx=".753" ry=".753"/>
    <ellipse cx="63.709" cy="37.881" rx="1.829" ry="1.829"/>
    <circle cx="75.332" cy="34.545" r=".753"/>
    <ellipse cx="59.727" cy="22.815" rx=".215" ry=".215"/>
    <ellipse cx="61.342" cy="19.263" rx=".646" ry=".646"/>
    <ellipse cx="60.265" cy="17.864" rx=".43" ry=".43"/>
    <ellipse cx="11.3" cy="17.003" rx=".538" ry=".538"/>
  </g>
</svg>
