<svg xmlns="http://www.w3.org/2000/svg" width="60" height="60" viewBox="0 0 60 60">
  <path fill="#FFFFFF" d="M60,30 C60,46.5684 46.5684,60 30,60 C13.4316,60 0,46.5684 0,30 C0,13.4316 13.4316,0 30,0 C46.5684,0 60,13.4316 60,30 Z M14.4144,28.527 C14.553,24.3258 15.2808,20.307 16.5012,16.5912 L6.4794,16.5798 C4.4472,20.136 3.1968,24.1962 2.9646,28.527 L14.4144,28.527 Z M28.5354,16.581 L19.6038,16.581 C18.273,20.3088 17.49,24.3198 17.3418,28.527 L28.5348,28.527 L28.5348,16.581 L28.5354,16.581 Z M28.5354,2.9622 C25.3818,5.781 22.7196,9.4236 20.796,13.6254 L28.5354,13.6254 L28.5354,2.9622 Z M8.4192,13.6248 L17.61,13.6248 C19.1562,9.9294 21.282,6.5034 23.7306,3.6672 C17.409,5.0928 12.0006,8.9052 8.4192,13.6248 Z M57.0354,28.527 C56.8032,24.1956 55.5522,20.136 53.5206,16.5798 L43.4976,16.5912 C44.7186,20.307 45.4464,24.3258 45.585,28.527 L57.0354,28.527 Z M31.4646,28.527 L42.6582,28.527 C42.51,24.3198 41.7264,20.3088 40.3956,16.581 L31.4646,16.581 L31.4646,28.527 Z M31.4646,13.6248 L39.2046,13.6248 C37.2804,9.423 34.6182,5.7804 31.4646,2.9616 L31.4646,13.6248 L31.4646,13.6248 Z M36.2688,3.6678 C38.718,6.504 40.8444,9.93 42.39,13.6248 L51.5808,13.6248 C48,8.9052 42.5922,5.0928 36.2688,3.6678 Z M2.9646,31.473 C3.1968,35.8032 4.4472,39.864 6.4794,43.419 L16.5012,43.4082 C15.2808,39.693 14.553,35.6736 14.4144,31.4724 L2.9646,31.4724 L2.9646,31.473 Z M28.5354,31.473 L17.3418,31.473 C17.49,35.6808 18.273,39.6912 19.6038,43.419 L28.5354,43.419 L28.5354,31.473 Z M28.5354,46.3752 L20.7954,46.3752 C22.7196,50.5776 25.3812,54.2196 28.5348,57.0378 L28.5348,46.3752 L28.5354,46.3752 Z M23.7306,56.3322 C21.282,53.4948 19.1556,50.07 17.61,46.3746 L8.4192,46.3746 C12.0006,51.0942 17.409,54.9066 23.7306,56.3322 Z M45.5844,31.473 C45.4464,35.6742 44.7186,39.693 43.497,43.4088 L53.52,43.4196 C55.5522,39.8646 56.8032,35.8038 57.0348,31.4736 L45.5844,31.4736 L45.5844,31.473 Z M31.4646,43.419 L40.3962,43.419 C41.727,39.6912 42.51,35.6808 42.6588,31.473 L31.4646,31.473 L31.4646,43.419 Z M31.4646,57.0378 C34.6188,54.2196 37.2804,50.577 39.2046,46.3752 L31.4646,46.3752 L31.4646,57.0378 L31.4646,57.0378 Z M51.5808,46.3752 L42.39,46.3752 C40.8444,50.0706 38.718,53.4954 36.2688,56.3328 C42.5922,54.9066 48,51.0942 51.5808,46.3752 Z"/>
</svg>
