<svg xmlns="http://www.w3.org/2000/svg" width="90" height="90" viewBox="0 0 90 90">
  <path fill="#FFFFFF" fill-opacity=".75" d="M45,0 C20.182716,0 0,20.18272 0,45 C0,69.8173 20.182716,90 45,90 C69.817284,90 90,69.8173 90,45 C90,20.18272 69.817284,0 45,0 Z M45,6 C66.574644,6 84,23.42536 84,45 C84,66.5746 66.574644,84 45,84 C23.425356,84 6,66.5746 6,45 C6,23.42536 23.425356,6 45,6 Z M54.78125,19.96875 C54.1023571,20.0259399 53.4631433,20.3124841 52.96875,20.78125 L28.96875,42.78125 C28.3544291,43.3491576 28.0051238,44.1477692 28.0051238,44.984375 C28.0051238,45.8209808 28.3544291,46.6195924 28.96875,47.1875 L52.96875,69.1875 C53.7447358,69.9775177 54.8927944,70.2758683 55.9552333,69.9636095 C57.0176722,69.6513506 57.8217288,68.7792585 58.0468526,67.695007 C58.2719765,66.6107555 57.8815603,65.4906543 57.03125,64.78125 L35.4375,45 L57.03125,25.1875 C57.9862063,24.3263297 58.286199,22.9523671 57.7770966,21.7715325 C57.2679942,20.5906978 56.0630117,19.8655868 54.78125,19.96875 L54.78125,19.96875 Z"/>
</svg>
