<svg xmlns="http://www.w3.org/2000/svg" width="39" height="60" viewBox="0 0 39 60">
  <g fill="#000000">
    <path d="M19.5,43.8 C26.55,43.8 32.25,38.1 32.25,31.05 L32.25,12.75 C32.25,5.7 26.55,0 19.5,0 C12.45,0 6.75,5.7 6.75,12.75 L6.75,31.05 C6.75,38.1 12.45,43.8 19.5,43.8 Z M9.75,12.75 C9.75,7.35 14.1,3 19.5,3 C24.9,3 29.25,7.35 29.25,12.75 L29.25,31.05 C29.25,36.45 24.9,40.8 19.5,40.8 C14.1,40.8 9.75,36.45 9.75,31.05 L9.75,12.75 Z"/>
    <path d="M38.25 30.9C38.25 30.15 37.5 29.4 36.75 29.4 36 29.4 35.25 30.15 35.25 30.9 35.25 39.6 28.2 46.65 19.5 46.65 10.8 46.65 3.75 39.6 3.75 30.9 3.75 30.15 3 29.4 2.25 29.4 1.5 29.4.75 30.15.75 30.9.75 40.8 8.4 48.9 18 49.65L18 57 8.25 57C7.5 57 6.75 57.6 6.75 58.5 6.75 59.4 7.5 60 8.25 60L30.75 60C31.5 60 32.25 59.4 32.25 58.5 32.25 57.6 31.5 57 30.75 57L21 57 21 49.65C30.6 48.9 38.25 40.8 38.25 30.9zM14.25 23.4L24.75 23.4C25.65 23.4 26.25 22.8 26.25 21.9 26.25 21 25.65 20.4 24.75 20.4L14.25 20.4C13.35 20.4 12.75 21 12.75 21.9 12.75 22.65 13.5 23.4 14.25 23.4z"/>
    <path d="M14.25 30.9L24.75 30.9C25.65 30.9 26.25 30.3 26.25 29.4 26.25 28.5 25.65 27.9 24.75 27.9L14.25 27.9C13.35 27.9 12.75 28.5 12.75 29.4 12.75 30.15 13.5 30.9 14.25 30.9zM14.25 15.9L24.75 15.9C25.65 15.9 26.25 15.3 26.25 14.4 26.25 13.5 25.65 12.9 24.75 12.9L14.25 12.9C13.35 12.9 12.75 13.5 12.75 14.4 12.75 15.15 13.5 15.9 14.25 15.9z"/>
  </g>
</svg>
