<svg xmlns="http://www.w3.org/2000/svg" width="75" height="60" viewBox="0 0 75 60">
  <g fill="none" fill-rule="evenodd">
    <path fill="#FFFFFF" fill-rule="nonzero" d="M19.7891667,42.9183333 L42.1383333,20.6116667 C42.1383333,20.6116667 45.6216667,16.4775 50.1633333,27.025 C50.1633333,27.025 50.3408333,26.8741667 52.54,24.9533333 C53.2675,24.3183333 55.0766667,23.7483333 59.8558333,32.0916667 C59.8558333,32.0916667 63.795,38.8058333 69.8666667,39.4975 L69.8666667,45.9933333 L19.7383333,45.9933333 L19.7891667,42.9183333 Z"/>
    <ellipse cx="27.913" cy="20.249" fill="#FFFFFF" fill-rule="nonzero" rx="5.138" ry="5.138"/>
    <path fill="#FFFFFF" fill-rule="nonzero" d="M60.3983333,27.1958333 L65.4016667,27.1883333 L65.4016667,27.1791667 L65.4541667,27.1883333 C66.2016667,27.1883333 66.7833333,26.72 66.7833333,25.9716667 C66.7833333,25.465 66.4858333,25.0283333 66.0733333,24.7958333 C65.97,23.7483333 65.0883333,22.93 64.015,22.93 C63.1516667,22.93 62.4125,23.4583333 62.1016667,24.2091667 C61.9791667,24.1308333 61.8333333,24.0825 61.6766667,24.0825 C61.2408333,24.0825 60.8875,24.4358333 60.8875,24.8716667 L60.8925,24.9258333 C60.7916667,24.8941667 60.6866667,24.8733333 60.575,24.8733333 C59.9683333,24.8733333 59.4766667,25.4366667 59.4766667,26.0433333 C59.4766667,26.5891667 59.875,27.1958333 60.3941667,27.1958333 L60.3983333,27.1958333 L60.395,27.1958333"/>
    <polygon points="56.572 4.177 41.267 9.167 58.2 9.167"/>
    <polygon points="14.167 50.833 14.167 48.051 14.167 16.932 3.623 20.428 15.367 55.998 30.764 50.833 17.664 50.833"/>
    <polygon fill="#FFFFFF" fill-rule="nonzero" points="15.458 55.998 3.623 20.34 14.167 16.932 14.167 14.107 3.216 17.737 .328 18.707 1.067 20.835 12.743 56.581 13.726 59.56 16.71 58.413 39.429 50.833 30.764 50.833"/>
    <polygon fill="#FFFFFF" fill-rule="nonzero" points="56.572 4.177 58.2 9.167 61.024 9.167 58.987 2.443 58.293 .078 56.166 1.128 32.602 9.167 41.267 9.167"/>
    <path fill="#FFFFFF" fill-rule="nonzero" d="M73.165,9.16666667 L61.0241667,9.16666667 L58.2,9.16666667 L41.2666667,9.16666667 L32.6025,9.16666667 L17.6641667,9.16666667 L14.1666667,9.16666667 L14.1666667,10.4541667 L14.1666667,14.1075 L14.1666667,16.9316667 L14.1666667,48.0508333 L14.1666667,50.8333333 L17.6641667,50.8333333 L30.7641667,50.8333333 L39.4291667,50.8333333 L73.165,50.8333333 L75,50.8333333 L75,48.0508333 L75,10.4541667 L75,9.16666667 L73.165,9.16666667 Z M72.5,48.3333333 L47.3633333,48.3333333 L38.5925,48.3333333 L16.6666667,48.3333333 L16.6666667,11.6666667 L23.7775,11.6666667 L32.5475,11.6666667 L58.91,11.6666667 L61.7691667,11.6666667 L72.5,11.6666667 L72.5,48.3333333 Z"/>
  </g>
</svg>
