<svg xmlns="http://www.w3.org/2000/svg" width="90" height="60" viewBox="0 0 90 60">
  <g fill="none">
    <path fill="#000000" d="M84.9833333,4.91070107 C85.402381,5.72578477 85.5369048,6.66324984 85.4119048,7.70170925 C78.6952381,4.01838641 59.4,8.51679295 38.8642857,19.0249566 C18.3285714,29.5331202 3.41547619,42.5423789 2.5,50.1407174 C1.58214286,49.6369339 0.897619048,48.9798767 0.476190476,48.164793 C-3.00952381,41.3803499 13.0833333,26.2003071 36.4202381,14.2580239 C59.7571429,2.31574072 81.5,-1.87136564 84.9833333,4.91070107 Z"/>
    <path fill="#000000" d="M45.2547619,59.817163 C33.1343759,59.817363 22.2073206,52.5305505 17.5688653,41.3545551 C12.9304099,30.1785597 15.4940191,17.3143027 24.0642857,8.76036753 C35.7674626,-2.92012474 54.7420613,-2.92012474 66.4452381,8.76036753 C78.1484149,20.4408598 78.1484149,39.3786795 66.4452381,51.0591718 C60.8371855,56.6859702 53.2067242,59.8396281 45.2547619,59.817163 L45.2547619,59.817163 Z M45.2547619,3.56450598 C34.5788636,3.56447864 24.9541708,9.9830069 20.8686777,19.8271311 C16.7831846,29.6712553 19.0414624,41.0023358 26.5904762,48.5366897 C36.8984766,58.8247096 53.6110471,58.8247095 63.9190473,48.5366895 C74.2270476,38.2486695 74.2270477,21.5684934 63.9190476,11.2804733 C58.9798005,6.32384567 52.2590087,3.54541573 45.2547619,3.56450598 L45.2547619,3.56450598 Z"/>
    <ellipse cx="45.255" cy="29.867" fill="#BABABA" rx="26.354" ry="26.302"/>
    <path fill="#000000" d="M88.6690476,11.602467 C88.2559524,10.7838188 87.577381,10.123197 86.6630952,9.61228446 C85.6880952,17.1999295 70.6714286,30.1046293 50.0654762,40.4642719 C29.4595238,50.8239144 10.1309524,55.1868697 3.44166667,51.447703 C3.30833333,52.4849742 3.44166667,53.4236274 3.85,54.2410875 C7.28571429,61.0469176 29.0571429,57.0190258 52.4797619,45.2430862 C75.902381,33.4671466 92.1035714,18.408297 88.6690476,11.602467 Z"/>
  </g>
</svg>
