<svg xmlns="http://www.w3.org/2000/svg" width="36" height="60" viewBox="0 0 36 60">
  <g fill="#000000">
    <path d="M35.2207792,13.4025974 L28.5974026,13.4025974 C28.5194805,6.85714286 25.5584416,4.5974026 24.9350649,4.20779221 C25.1688312,3.58441558 24.9350649,2.80519481 24.3896104,2.41558442 L22.0519481,0.857142857 C21.3506494,0.38961039 20.4935065,0.623376623 20.025974,1.32467532 L19.7142857,1.79220779 C19.2467532,2.49350649 19.4805195,3.35064935 20.1818182,3.81818182 L22.5194805,5.37662338 C22.987013,5.68831169 23.5324675,5.68831169 24,5.45454545 L24.0779221,5.53246753 C24.2337662,5.61038961 26.961039,7.32467532 27.038961,13.4025974 L1.09090909,13.4025974 C0.623376623,13.4025974 0.311688312,13.7142857 0.311688312,14.1818182 L0.311688312,18 C0.311688312,18.4675325 0.623376623,18.7792208 1.09090909,18.7792208 L3.66233766,18.7792208 L3.66233766,59.1428571 C3.66233766,59.6103896 3.97402597,59.9220779 4.44155844,59.9220779 L31.8701299,59.9220779 C32.3376623,59.9220779 32.6493506,59.6103896 32.6493506,59.1428571 L32.6493506,18.7792208 L35.2207792,18.7792208 C35.6883117,18.7792208 36,18.4675325 36,18 L36,14.1818182 C36,13.7142857 35.6103896,13.4025974 35.2207792,13.4025974 Z M31.0909091,58.3636364 L5.22077922,58.3636364 L5.22077922,18.7792208 L31.0909091,18.7792208 L31.0909091,58.3636364 Z M34.4415584,17.2207792 L31.8701299,17.2207792 L4.44155844,17.2207792 L1.87012987,17.2207792 L1.87012987,14.961039 L34.3636364,14.961039 L34.3636364,17.2207792 L34.4415584,17.2207792 Z"/>
    <path d="M10.7532468,48.3896104 L25.5584416,48.3896104 C26.025974,48.3896104 26.3376623,48.0779221 26.3376623,47.6103896 L26.3376623,26.5714286 C26.3376623,26.1038961 26.025974,25.7922078 25.5584416,25.7922078 L10.7532468,25.7922078 C10.2857143,25.7922078 9.97402597,26.1038961 9.97402597,26.5714286 L9.97402597,47.6103896 C9.97402597,48.0779221 10.3636364,48.3896104 10.7532468,48.3896104 Z M11.5324675,27.3506494 L24.7792208,27.3506494 L24.7792208,46.8311688 L11.5324675,46.8311688 L11.5324675,27.3506494 Z"/>
  </g>
</svg>
