<svg xmlns="http://www.w3.org/2000/svg" width="39" height="65" viewBox="0 0 39 65">
  <g fill="#FFFFFF">
    <path d="M38.1558442,14.5194805 L30.9805195,14.5194805 C30.8961039,7.42857143 27.6883117,4.98051948 27.012987,4.55844156 C27.2662338,3.88311688 27.012987,3.03896104 26.4220779,2.61688312 L23.8896104,0.928571429 C23.1298701,0.422077922 22.2012987,0.675324675 21.6948052,1.43506494 L21.3571429,1.94155844 C20.8506494,2.7012987 21.1038961,3.62987013 21.8636364,4.13636364 L24.3961039,5.82467532 C24.9025974,6.16233766 25.4935065,6.16233766 26,5.90909091 L26.0844156,5.99350649 C26.2532468,6.07792208 29.2077922,7.93506494 29.2922078,14.5194805 L1.18181818,14.5194805 C0.675324675,14.5194805 0.337662338,14.8571429 0.337662338,15.3636364 L0.337662338,19.5 C0.337662338,20.0064935 0.675324675,20.3441558 1.18181818,20.3441558 L3.96753247,20.3441558 L3.96753247,64.0714286 C3.96753247,64.5779221 4.30519481,64.9155844 4.81168831,64.9155844 L34.525974,64.9155844 C35.0324675,64.9155844 35.3701299,64.5779221 35.3701299,64.0714286 L35.3701299,20.3441558 L38.1558442,20.3441558 C38.6623377,20.3441558 39,20.0064935 39,19.5 L39,15.3636364 C39,14.8571429 38.5779221,14.5194805 38.1558442,14.5194805 Z M33.6818182,63.2272727 L5.65584416,63.2272727 L5.65584416,20.3441558 L33.6818182,20.3441558 L33.6818182,63.2272727 Z M37.3116883,18.6558442 L34.525974,18.6558442 L4.81168831,18.6558442 L2.02597403,18.6558442 L2.02597403,16.2077922 L37.2272727,16.2077922 L37.2272727,18.6558442 L37.3116883,18.6558442 Z"/>
    <path d="M11.6493506,52.4220779 L27.6883117,52.4220779 C28.1948052,52.4220779 28.5324675,52.0844156 28.5324675,51.5779221 L28.5324675,28.7857143 C28.5324675,28.2792208 28.1948052,27.9415584 27.6883117,27.9415584 L11.6493506,27.9415584 C11.1428571,27.9415584 10.8051948,28.2792208 10.8051948,28.7857143 L10.8051948,51.5779221 C10.8051948,52.0844156 11.2272727,52.4220779 11.6493506,52.4220779 Z M12.4935065,29.6298701 L26.8441558,29.6298701 L26.8441558,50.7337662 L12.4935065,50.7337662 L12.4935065,29.6298701 Z"/>
  </g>
</svg>
