<svg xmlns="http://www.w3.org/2000/svg" width="68" height="60" viewBox="0 0 68 60">
  <path fill="#FFFFFF" d="M1.875,3.75 L8.0235,3.75 L11.3325,13.67625 C11.3415,13.70475 11.3505,13.73175 11.36025,13.7595 L18.846,36.2175 L21.91425,45.42225 C18.9855,46.4445 16.875,49.227 16.875,52.5 C16.875,56.6355 20.2395,60 24.375,60 C28.5105,60 31.875,56.6355 31.875,52.5 C31.875,51.1335 31.5015,49.85475 30.86025,48.75 L49.76475,48.75 C49.1235,49.85475 48.75,51.1335 48.75,52.5 C48.75,56.6355 52.1145,60 56.25,60 C60.3855,60 63.75,56.6355 63.75,52.5 C63.75,48.3645 60.3855,45 56.25,45 L25.7265,45 L23.22675,37.5 L29.994,37.5 L29.99775,37.5 L30.00225,37.5 L48.74775,37.5 L48.75225,37.5 L48.756,37.5 L58.125,37.5 C58.932,37.5 59.64825,36.984 59.904,36.21825 L67.404,13.71825 C67.5945,13.14675 67.4985,12.5175 67.14675,12.02925 C66.7935,11.5395 66.228,11.25 65.625,11.25 L26.32275,11.25 L26.316,11.25 L14.4765,11.25 L11.154,1.28175 C10.89825,0.516 10.182,0 9.375,0 L1.875,0 C0.83925,0 0,0.83925 0,1.875 C0,2.91075 0.83925,3.75 1.875,3.75 Z M41.25,33.75 L41.25,26.25 L48.41175,26.25 L47.1615,33.75 L41.25,33.75 Z M41.25,22.5 L41.25,15 L50.28675,15 L49.0365,22.5 L41.25,22.5 Z M37.5,22.5 L29.7135,22.5 L28.46325,15 L37.5,15 L37.5,22.5 Z M37.5,26.25 L37.5,33.75 L31.5885,33.75 L30.33825,26.25 L37.5,26.25 Z M27.78675,33.75 L21.9765,33.75 L19.47675,26.25 L26.53725,26.25 L27.78675,33.75 Z M28.125,52.5 C28.125,54.56775 26.44275,56.25 24.375,56.25 C22.30725,56.25 20.625,54.56775 20.625,52.5 C20.625,50.43225 22.30725,48.75 24.375,48.75 C26.44275,48.75 28.125,50.43225 28.125,52.5 Z M60,52.5 C60,54.56775 58.31775,56.25 56.25,56.25 C54.18225,56.25 52.5,54.56775 52.5,52.5 C52.5,50.43225 54.18225,48.75 56.25,48.75 C58.31775,48.75 60,50.43225 60,52.5 Z M56.7735,33.75 L50.96325,33.75 L52.2135,26.25 L59.274,26.25 L56.7735,33.75 Z M60.5235,22.5 L52.83825,22.5 L54.0885,15 L63.024,15 L60.5235,22.5 Z M24.6615,15 L25.91175,22.5 L18.2265,22.5 L15.72675,15 L24.6615,15 Z" transform="translate(.5)"/>
</svg>
