<svg xmlns="http://www.w3.org/2000/svg" width="70" height="60" viewBox="0 0 70 60">
  <path fill="#FFFFFF" d="M44.9285714,26.4285714 L42.9571429,26.9428571 L41.7928571,22.4571429 L43.7642857,21.9428571 C44.7046556,21.7275515 45.4537337,21.0182293 45.7199503,20.0909857 C45.986167,19.1637421 45.7274605,18.1650795 45.0445293,17.4837154 C44.3615982,16.8023513 43.3623439,16.5459397 42.4357143,16.8142857 L40.4642857,17.3285714 L39.95,15.3571429 C39.5510434,13.9795001 38.1284493,13.1692848 36.7400325,13.5289582 C35.3516158,13.8886316 34.5013285,15.2876435 34.8214286,16.6857143 L35.3357143,18.6571429 L30.85,19.8214286 L30.3285714,17.8571429 C30.1132658,16.916773 29.4039436,16.1676949 28.4767,15.9014782 C27.5494564,15.6352616 26.5507937,15.8939681 25.8694297,16.5768992 C25.1880656,17.2598304 24.931654,18.2590847 25.2,19.1857143 L25.7142857,21.1571429 L23.7428571,21.6714286 C22.8024873,21.8867342 22.0534092,22.5960564 21.7871925,23.5233 C21.5209759,24.4505436 21.7796824,25.4492063 22.4626135,26.1305703 C23.1455447,26.8119344 24.144799,27.068346 25.0714286,26.8 L27.0428571,26.2857143 L28.2071429,30.7714286 L26.2357143,31.2857143 C25.3170313,31.5230407 24.5947454,32.2324509 24.3409346,33.1467169 C24.0871239,34.0609829 24.3403481,35.0412059 25.0052203,35.7181455 C25.6700926,36.395085 26.6456028,36.6658979 27.5642857,36.4285714 L29.5357143,35.9142857 L30.05,37.8571429 C30.4489566,39.2347857 31.8715507,40.0450009 33.2599675,39.6853275 C34.6483842,39.3256541 35.4986715,37.9266422 35.1785714,36.5285714 L34.6642857,34.5571429 L39.15,33.3928571 L39.6642857,35.3642857 C39.8795913,36.3046556 40.5889136,37.0537337 41.5161572,37.3199503 C42.4434008,37.586167 43.4420634,37.3274605 44.1234275,36.6445293 C44.8047916,35.9615982 45.0612032,34.9623439 44.7928571,34.0357143 L44.2857143,32.0785714 L46.2571429,31.5642857 C47.6753312,31.1974108 48.5275892,29.7503312 48.1607143,28.3321429 C47.7938394,26.9139545 46.3467598,26.0616966 44.9285714,26.4285714 L44.9285714,26.4285714 Z M33.3357143,29.4428571 L32.1428571,24.9571429 L36.6285714,23.7928571 L37.8571429,28.2785714 L33.3357143,29.4428571 Z M62.2142857,0 L7.78571429,0 C3.67838997,0.00391726797 0.347515079,3.32840505 0.335714286,7.43571429 L0.335714286,45.7928571 C0.333818975,47.7706147 1.11766288,49.6681212 2.51480909,51.0679465 C3.91195531,52.4677718 5.80795675,53.2552494 7.78571429,53.2571429 L23.5,53.2571429 L23.5,56.7571429 C23.51178,58.5515841 24.9698058,60.0000387 26.7642857,60 L43.2357143,60 C45.0385295,60 46.5,58.5385295 46.5,56.7357143 L46.5,53.2357143 L62.2142857,53.2357143 C66.32161,53.231797 69.6524849,49.9073092 69.6642857,45.8 L69.6642857,7.43571429 C69.6524849,3.32840505 66.32161,0.00391726797 62.2142857,0 Z M65.3357109,47.8777712 C65.3357109,48.4975611 64.8603258,49 64.2739085,49 L6.3975132,49 C5.81109596,49 5.33571086,48.4975611 5.33571086,47.8777712 L5.33571086,6.12222876 C5.33571086,5.50243893 5.81109596,5 6.3975132,5 L64.2739085,5 C64.8603258,5 65.3357109,5.50243893 65.3357109,6.12222876 L65.3357109,47.8777712 Z"/>
</svg>
