<svg xmlns="http://www.w3.org/2000/svg" width="58" height="58" viewBox="0 0 58 58">
  <path fill="#FFFFFF" d="M28.5047499,0.3735 C12.7721134,0.3735 0.00470591635,13.140075 0.00474985385,28.8735 C0.00477241635,44.6068063 12.772162,57.3735 28.5047499,57.3735 C44.2373377,57.3735 57.0047273,44.6068063 57.0047499,28.8735 C57.004795,13.140075 44.2373864,0.3735 28.5047499,0.3735 Z M28.6970575,2.53636058 C43.3558999,2.53636058 55.2265468,14.4064231 55.2265052,29.0658077 C55.2264845,43.7251923 43.3558549,55.5952554 28.6970575,55.5952554 C14.0382602,55.5952554 2.16763005,43.7251923 2.16761043,29.0658077 C2.16756774,14.4064231 14.0382152,2.53636058 28.6970575,2.53636058 Z M30.8064325,12.9074544 C30.5681368,12.9859162 30.3973606,13.2338777 30.4097979,13.4843777 L30.4097979,14.0613008 L29.8328749,14.0613008 L29.7247018,14.0613008 C29.4226099,14.0889931 29.1555152,14.4082623 29.1838364,14.7103392 C29.2121518,15.0124162 29.5307875,15.2435315 29.8328749,15.2151469 L30.4097979,15.2151469 L30.4097979,15.79207 C30.4055287,16.0969162 30.6818945,16.3689931 30.986721,16.3689931 C31.2915475,16.3689931 31.5679549,16.0969162 31.5636441,15.79207 L31.5636441,15.2151469 L32.1405672,15.2151469 C32.4453625,15.2151469 32.7174902,14.94307 32.7174902,14.6382238 C32.7174902,14.3333777 32.4453625,14.0570315 32.1405672,14.0613008 L31.5636441,14.0613008 L31.5636441,13.4843777 C31.5696441,13.1426085 31.2142664,12.8433004 30.8785479,12.9074544 L30.8064325,12.9074544 Z M21.5396056,16.9459162 C21.3013087,17.0243777 21.1305325,17.2723392 21.142971,17.5228392 L21.142971,18.0997623 L20.5660479,18.0997623 L20.4578749,18.0997623 C20.1557829,18.1274546 19.8886883,18.4467238 19.9170095,18.7488008 C19.9453249,19.0508777 20.2639595,19.2819931 20.5660479,19.2536085 L21.142971,19.2536085 L21.142971,19.8305315 C21.1387018,20.1353777 21.4150675,20.4074546 21.7198941,20.4074546 C22.0247206,20.4074546 22.3011279,20.1353777 22.2968172,19.8305315 L22.2968172,19.2536085 L22.8737402,19.2536085 C23.1785356,19.2536085 23.4506633,18.9815315 23.4506633,18.6766854 C23.4506633,18.3718392 23.1785356,18.0954931 22.8737402,18.0997623 L22.2968172,18.0997623 L22.2968172,17.5228392 C22.3028172,17.18107 21.9474395,16.8817623 21.611721,16.9459162 L21.5396056,16.9459162 Z M40.7222979,18.6766854 L30.1573941,21.5252431 L31.6357595,27.1141854 L42.236721,24.2656277 L40.7222979,18.6766854 Z M29.3280672,22.9314931 L20.4218172,25.3473585 L20.4939325,25.63582 C20.5846479,25.7583585 20.6244302,25.9175892 20.6021056,26.0685123 L21.3232595,28.7007238 L30.2295095,26.2848585 L29.3280672,22.9314931 Z M19.5924902,26.7536085 L15.1573941,27.9435123 L15.3016249,28.4843777 L15.4458556,29.0613008 L19.9170095,27.8713969 L19.5924902,26.7536085 Z M27.236721,28.3040892 L26.0828749,28.5925508 L26.0828749,30.2151469 L27.236721,30.2151469 L27.236721,28.3040892 Z M24.9290287,31.3689931 L24.9290287,32.5228392 L28.3905672,32.5228392 L28.3905672,31.3689931 L24.9290287,31.3689931 Z M40.0372018,32.5228392 C39.798906,32.6013008 39.6281299,32.8492623 39.6405672,33.0997623 L39.6405672,33.6766854 L39.0636441,33.6766854 L38.955471,33.6766854 C38.6533791,33.7043777 38.3862845,34.0236469 38.4146056,34.3257238 C38.442921,34.6278008 38.7615568,34.8589162 39.0636441,34.8305315 L39.6405672,34.8305315 L39.6405672,35.4074546 C39.6362979,35.7123008 39.9126637,35.9843777 40.2174902,35.9843777 C40.5223168,35.9843777 40.7987241,35.7123008 40.7944133,35.4074546 L40.7944133,34.8305315 L41.3713364,34.8305315 C41.6761318,34.8305315 41.9482595,34.5584546 41.9482595,34.2536085 C41.9482595,33.9487623 41.6761318,33.6724162 41.3713364,33.6766854 L40.7944133,33.6766854 L40.7944133,33.0997623 C40.8004133,32.7579931 40.4450356,32.4586854 40.1093172,32.5228392 L40.0372018,32.5228392 Z M24.892971,33.6766854 L20.2415287,41.7536085 C20.1503749,41.7386085 20.0482064,41.7175508 19.9530672,41.7175508 C19.0040345,41.7175508 18.2222979,42.4991662 18.2222979,43.44832 C18.2026479,43.7620508 18.484731,44.0618777 18.799221,44.0613008 C19.113711,44.0618777 19.3957987,43.7620508 19.3761441,43.44832 C19.3761441,43.12282 19.6275972,42.8713969 19.9530672,42.8713969 C20.2785372,42.8713969 20.5299902,43.12282 20.5299902,43.44832 C20.525721,43.7531662 20.8020868,44.0252431 21.1069133,44.0252431 C21.4117399,44.0252431 21.6881472,43.7531662 21.6838364,43.44832 C21.6838364,43.0100892 21.5240206,42.6368777 21.2511441,42.3305315 L26.2631633,33.6766854 L24.892971,33.6766854 Z M26.3352787,33.6766854 L26.3352787,44.1334162 C25.6602579,44.37007 25.1453749,45.0046277 25.1453749,45.7560123 C25.1249287,46.0472431 25.3604425,46.3332238 25.6501825,46.3689931 C25.9876802,46.4128392 26.3232579,46.0954738 26.299221,45.7560123 C26.299221,45.4305123 26.5506741,45.1790892 26.8761441,45.1790892 C27.2016141,45.1790892 27.4530672,45.4305123 27.4530672,45.7560123 C27.4487979,46.0608585 27.7251706,46.3329354 28.0299902,46.3329354 C28.3348099,46.3329354 28.6112125,46.0608585 28.6069133,45.7560123 C28.6069133,45.0163969 28.1476606,44.3789546 27.4891249,44.1334162 L27.4891249,33.6766854 L26.3352787,33.6766854 Z M27.5612402,33.6766854 L32.5732595,42.3305315 C32.2910564,42.6389546 32.0684518,43.0016662 32.0684518,43.44832 C32.0641825,43.7531662 32.3405483,44.0252431 32.6453749,44.0252431 C32.9502002,44.0252431 33.2266075,43.7531662 33.2222979,43.44832 C33.2222979,43.12282 33.473751,42.8713969 33.799221,42.8713969 C34.1246899,42.8713969 34.3761441,43.12282 34.3761441,43.44832 C34.3564941,43.7620508 34.6385772,44.0618777 34.9530672,44.0613008 C35.2675572,44.0618777 35.5496437,43.7620508 35.5299902,43.44832 C35.5299902,42.4991662 34.7482537,41.7175508 33.799221,41.7175508 C33.7066364,41.7175508 33.6356506,41.7397623 33.5468172,41.7536085 L28.8953749,33.6766854 L27.5612402,33.6766854 Z" transform="translate(.15 -.066)"/>
</svg>
