<svg xmlns="http://www.w3.org/2000/svg" width="60" height="60" viewBox="0 0 60 60">
  <path fill="#000000" d="M45,0.246940909 C43.1333591,0.246940909 41.5909091,1.78941818 41.5909091,3.65603182 C41.5909091,4.11571364 41.699025,4.55357727 41.8678977,4.95578182 L30.0852273,17.9742136 L29.7443182,17.9742136 L16.875,8.76966818 C16.9793114,8.44491818 17.0454545,8.10394091 17.0454545,7.74694091 C17.0454545,5.88032727 15.5030039,4.33785 13.636363,4.33785 C11.7697289,4.33785 10.227272,5.88032727 10.227272,7.74694091 C10.227272,9.61355455 11.7697289,11.1560318 13.636363,11.1560318 C14.1470448,11.1560318 14.6267107,11.0211 15.0639198,10.8151227 L25.078125,17.9742136 L3.40909023,17.9742136 C1.54405227,17.9742136 -6.05576195e-16,19.5182591 -6.05576195e-16,21.3833045 L-6.05576195e-16,55.4742273 C-6.05576195e-16,57.3392727 1.54405227,58.8833182 3.40909023,58.8833182 L56.5909091,58.8833182 C58.4559545,58.8833182 60,57.3392727 60,55.4742273 L60,21.3833045 C60,19.5182591 58.4559545,17.9742136 56.5909091,17.9742136 L33.75,17.9742136 L43.828125,6.83078182 C44.1961841,6.96857727 44.5870091,7.06512273 45,7.06512273 C46.8666409,7.06512273 48.4090909,5.52264545 48.4090909,3.65603182 C48.4090909,1.78941818 46.8666409,0.246940909 45,0.246940909 L45,0.246940909 Z M45,2.97421364 C45.3927,2.97421364 45.6818182,3.26330455 45.6818182,3.65603182 C45.6818182,4.04875909 45.3927,4.33785 45,4.33785 C44.6073,4.33785 44.3181818,4.04875909 44.3181818,3.65603182 C44.3181818,3.26330455 44.6073,2.97421364 45,2.97421364 Z M13.636363,7.06512273 C14.0290698,7.06512273 14.3181811,7.35421364 14.3181811,7.74694091 C14.3181811,8.13966818 14.0290698,8.42875909 13.636363,8.42875909 C13.243663,8.42875909 12.9545448,8.13966818 12.9545448,7.74694091 C12.9545448,7.35421364 13.243663,7.06512273 13.636363,7.06512273 Z M3.40909023,20.7014864 L56.5909091,20.7014864 C56.9922205,20.7014864 57.2727273,20.9819864 57.2727273,21.3833045 L57.2727273,55.4742273 C57.2727273,55.8755455 56.9922205,56.1560455 56.5909091,56.1560455 L3.40909091,56.1560455 C3.00777955,56.1560455 2.72727239,55.8755455 2.72727239,55.4742273 L2.72727239,21.3833045 C2.72727239,20.9819864 3.00777955,20.7014864 3.40909091,20.7014864 L3.40909023,20.7014864 Z M7.39346523,24.1105773 C6.68227319,24.1663725 6.13424895,24.7608394 6.13636295,25.4742136 L6.13636295,51.3833182 C6.13643821,52.1364026 6.74691493,52.7468793 7.49999932,52.7469545 L40.9090909,52.7469545 C41.6621753,52.7468793 42.272652,52.1364026 42.2727273,51.3833182 L42.2727273,25.4742136 C42.272652,24.7211292 41.6621753,24.1106525 40.9090909,24.1105773 L7.49999932,24.1105773 C7.46450151,24.1091897 7.42896304,24.1091897 7.39346523,24.1105773 L7.39346523,24.1105773 Z M49.7727273,24.1105773 C47.5295318,24.1105773 45.6818182,25.9583045 45.6818182,28.2015 C45.6818182,30.4446818 47.5295318,32.2924091 49.7727273,32.2924091 C52.0159227,32.2924091 53.8636364,30.4446818 53.8636364,28.2015 C53.8636364,25.9583045 52.0159227,24.1105773 49.7727273,24.1105773 Z M8.86363636,26.83785 L39.5454545,26.83785 L39.5454545,50.0196818 L8.86363636,50.0196818 L8.86363636,26.83785 L8.86363636,26.83785 Z M49.7727273,26.83785 C50.5419955,26.83785 51.1363636,27.4322591 51.1363636,28.2015 C51.1363636,28.9707955 50.5419955,29.5651364 49.7727273,29.5651364 C49.0034591,29.5651364 48.4090909,28.9707955 48.4090909,28.2015 C48.4090909,27.4322591 49.0034591,26.83785 49.7727273,26.83785 Z M46.3636364,34.3378636 C45.6105205,34.3378636 45,34.9483636 45,35.7015 C45,36.4546364 45.6105205,37.0651364 46.3636364,37.0651364 L53.1818182,37.0651364 C53.9349341,37.0651364 54.5454545,36.4546364 54.5454545,35.7015 C54.5454545,34.9483636 53.9349341,34.3378636 53.1818182,34.3378636 L46.3636364,34.3378636 Z M46.3636364,39.1105909 C45.6105205,39.1105909 45,39.7210909 45,40.4742273 C45,41.2273636 45.6105205,41.8378636 46.3636364,41.8378636 L53.1818182,41.8378636 C53.9349341,41.8378636 54.5454545,41.2273636 54.5454545,40.4742273 C54.5454545,39.7210909 53.9349341,39.1105909 53.1818182,39.1105909 L46.3636364,39.1105909 Z M46.3636364,43.8833182 C45.6105205,43.8833182 45,44.4938182 45,45.2469545 C45,46.0000909 45.6105205,46.6105909 46.3636364,46.6105909 L53.1818182,46.6105909 C53.9349341,46.6105909 54.5454545,46.0000909 54.5454545,45.2469545 C54.5454545,44.4938182 53.9349341,43.8833182 53.1818182,43.8833182 L46.3636364,43.8833182 L46.3636364,43.8833182 Z" transform="translate(0 .435)"/>
</svg>
