<svg xmlns="http://www.w3.org/2000/svg" width="113" height="60" viewBox="0 0 113 60">
  <g fill="none" fill-rule="evenodd">
    <path d="M49.0325,32.2675 C50.2275,31.96875 52.26125,31.60875 52.6075,30.75625 C52.7025,30.52125 52.76125,29.98875 52.67625,29.58375 C52.62625,29.34875 52.26125,28.92875 52.0575,28.58625 C51.6525,27.91125 51.315,27.23 51.06,26.38625 C50.9225,25.93 50.91125,25.44 50.75,25.11375 C50.64125,24.89125 50.52,24.7225 50.31875,24.495 C50.14,24.2925 49.92,24.0675 49.80375,23.8075 C49.635,23.42875 49.13,22.47125 49.3075,22.105 C49.39125,21.93125 49.56375,21.7025 49.89125,21.71125 C49.16875,17.285 51.73,14.445 55.53,14.1825 C60.0225,13.87375 63.4975,17.01375 62.50875,21.6775 C62.65875,21.78 62.8625,21.8775 62.95375,22.07125 C63.13625,22.45 62.59875,23.63875 62.45875,23.94625 C62.18625,24.53875 61.85375,24.7425 61.5825,25.04625 C61.23375,26.69125 60.67125,28.1225 59.7925,29.23875 C59.89625,29.78375 59.74875,30.38125 59.89625,30.78625 C60.06375,31.2425 60.915,31.59375 61.4425,31.75 C65.07,32.8 70.35375,32.42625 70.21,37.5875 C70.2025,37.87125 70.2075,38 70.195,38.0925 C72.21125,35.28 73.4025,31.83625 73.4025,28.12 C73.4025,18.66125 65.7075,10.965 56.245,10.965 C46.785,10.965 39.09125,18.66125 39.09125,28.12 C39.09125,31.84375 40.28875,35.29125 42.3125,38.10875 C42.3025,38.01 42.30125,37.87125 42.29,37.62 C42.1,33.345 45.67,33.11625 49.0325,32.2675 Z"/>
    <path fill="#FFFFFF" fill-rule="nonzero" d="M56.25,46.875 C66.58875,46.875 75,38.46375 75,28.125 C75,17.78625 66.58875,9.375 56.25,9.375 C45.91125,9.375 37.5,17.78625 37.5,28.125 C37.5,38.46375 45.91125,46.875 56.25,46.875 Z M39.095,28.125 C39.095,18.66625 46.79125,10.97 56.25,10.97 C65.7075,10.97 73.40625,18.66625 73.40625,28.125 C73.40625,31.84125 72.2125,35.28375 70.2,38.09625 C70.2125,38.00375 70.2075,37.87125 70.215,37.59375 C70.35875,32.43 65.08,32.805 61.44875,31.75375 C60.91625,31.605 60.06875,31.2525 59.90125,30.79125 C59.75375,30.38625 59.90125,29.785 59.7975,29.24375 C60.67375,28.12625 61.23375,26.695 61.58875,25.05125 C61.8625,24.7475 62.19125,24.54375 62.465,23.95125 C62.60375,23.64375 63.14625,22.455 62.96,22.07625 C62.8675,21.8825 62.66375,21.785 62.51375,21.6825 C63.5025,17.02 60.02875,13.87875 55.535,14.1875 C51.735,14.44875 49.17375,17.29 49.89625,21.71625 C49.56875,21.7075 49.39625,21.93625 49.3125,22.11 C49.135,22.47625 49.64,23.43375 49.80875,23.8125 C49.925,24.0725 50.14625,24.2975 50.32375,24.5 C50.52625,24.7275 50.64625,24.89625 50.755,25.11875 C50.91625,25.44375 50.9275,25.93375 51.065,26.39125 C51.32,27.235 51.6575,27.91625 52.0625,28.59125 C52.26625,28.93 52.63125,29.35 52.68125,29.58875 C52.76625,29.98875 52.7075,30.5225 52.6125,30.76 C52.26625,31.61375 50.23125,31.97375 49.0375,32.27125 C45.67625,33.12125 42.105,33.345 42.29875,37.63 C42.31,37.87625 42.31125,38.02 42.32125,38.11875 C40.29125,35.2975 39.095,31.84875 39.095,28.125 Z"/>
    <path fill="#FFFFFF" fill-rule="nonzero" d="M102.03625,53.88625 C102.1725,53.6 102.25625,53.2875 102.25625,52.95375 L102.25625,2.63375 C102.25625,1.4425 101.2925,0.4775 100.1,0.4775 L12.4,0.4775 C11.20875,0.4775 10.24375,1.4425 10.24375,2.63375 L10.24375,52.95375 C10.24375,53.29 10.32625,53.60375 10.46375,53.88625 L0,53.88625 L0,57.365 C0,58.55375 0.965,59.52125 2.15625,59.52125 L110.34125,59.52125 C111.5325,59.52125 112.5,58.5575 112.5,57.365 L112.5,53.88625 L102.03625,53.88625 Z M55.4,2.4925 L55.4,2.4925 C55.4,2.02375 55.78,1.64125 56.25,1.64125 C56.71875,1.64125 57.1,2.0225 57.1,2.49125 L57.1,2.49125 L57.1,2.49125 C57.1,2.96 56.72,3.34125 56.25,3.34125 C55.78,3.34125 55.4,2.9625 55.4,2.4925 L55.4,2.4925 Z M13.9275,4.635 L98.57125,4.635 L98.57125,50.34875 L13.9275,50.34875 L13.9275,4.635 Z M62.4775,56.7075 L62.4775,56.7075 C62.4775,57.1775 62.09875,57.55875 61.63,57.55875 L50.8675,57.55875 C50.39875,57.55875 50.0175,57.1775 50.0175,56.70875 L50.0175,56.7075 L50.0175,56.70625 C50.0175,56.235 50.39875,55.85375 50.8675,55.85375 L61.63,55.85375 C62.1,55.855 62.4775,56.235 62.4775,56.7075 L62.4775,56.7075 Z"/>
    <path fill="#FFFFFF" fill-rule="nonzero" d="M102.03625,53.88625 C102.1725,53.6 102.25625,53.2875 102.25625,52.95375 L102.25625,2.63375 C102.25625,1.4425 101.2925,0.4775 100.1,0.4775 L12.4,0.4775 C11.20875,0.4775 10.24375,1.4425 10.24375,2.63375 L10.24375,52.95375 C10.24375,53.29 10.32625,53.60375 10.46375,53.88625 L0,53.88625 L0,57.365 C0,58.55375 0.965,59.52125 2.15625,59.52125 L110.34125,59.52125 C111.5325,59.52125 112.5,58.5575 112.5,57.365 L112.5,53.88625 L102.03625,53.88625 Z M55.4,2.4925 L55.4,2.4925 C55.4,2.02375 55.78,1.64125 56.25,1.64125 C56.71875,1.64125 57.1,2.0225 57.1,2.49125 L57.1,2.49125 L57.1,2.49125 C57.1,2.96 56.72,3.34125 56.25,3.34125 C55.78,3.34125 55.4,2.9625 55.4,2.4925 L55.4,2.4925 Z M13.9275,4.635 L98.57125,4.635 L98.57125,50.34875 L13.9275,50.34875 L13.9275,4.635 Z M62.4775,56.7075 L62.4775,56.7075 C62.4775,57.1775 62.09875,57.55875 61.63,57.55875 L50.8675,57.55875 C50.39875,57.55875 50.0175,57.1775 50.0175,56.70875 L50.0175,56.7075 L50.0175,56.70625 C50.0175,56.235 50.39875,55.85375 50.8675,55.85375 L61.63,55.85375 C62.1,55.855 62.4775,56.235 62.4775,56.7075 L62.4775,56.7075 Z"/>
  </g>
</svg>
